<?xml version="1.0" encoding="utf-8"?>
<svg version="1.1" id="Layer_1" xmlns="http://www.w3.org/2000/svg" xmlns:xlink="http://www.w3.org/1999/xlink" x="0px" y="0px" height="20"
	 viewBox="0 0 30.3 5.4" style="enable-background:new 0 0 30.3 5.4;" xml:space="preserve">
<g transform="translate(-190.495 -1508.683)">
	<path fill="#F8B84E" d="M193.7,1509.7l-0.7,1l-1.2,0.4l0.8,1l0,1.2l1.2-0.4l1.2,0.4l0-1.2l0.8-1l-1.2-0.4L193.7,1509.7z"/>
	<path fill="#F8B84E" d="M199.7,1509.7l-0.7,1l-1.2,0.4l0.8,1l0,1.2l1.2-0.4l1.2,0.4l0-1.2l0.8-1l-1.2-0.4L199.7,1509.7z"/>
	<path fill="#F8B84E" d="M205.7,1509.7l-0.7,1l-1.2,0.4l0.8,1l0,1.2l1.2-0.4l1.2,0.4l0-1.2l0.8-1l-1.2-0.4L205.7,1509.7z"/>
	<path fill="#F8B84E" d="M211.7,1509.7l-0.7,1l-1.2,0.4l0.8,1l0,1.2l1.2-0.4l1.2,0.4l0-1.2l0.8-1l-1.2-0.4L211.7,1509.7z"/>
	<path fill="#F8B84E" d="M217.7,1509.7l-0.7,1l-1.2,0.4l0.8,1l0,1.2l1.2-0.4l1.2,0.4l0-1.2l0.8-1l-1.2-0.4L217.7,1509.7z"/>
</g>
</svg>
